<svg width="100" height="100" viewBox="0 0 100 100" fill="none" xmlns="http://www.w3.org/2000/svg">
<g clip-path="url(#clip0_106_2)">
<rect width="100" height="100" rx="10" fill="white"/>
<path d="M23.168 39.5156C24.1315 39.5156 25.069 39.7109 25.9805 40.1016C26.9049 40.4792 27.7253 40.9609 28.4414 41.5469C29.1706 42.1198 29.7109 42.7122 30.0625 43.3242L30.2773 41.4492C30.2773 40.9154 30.4336 40.4596 30.7461 40.082C31.0586 39.6914 31.4818 39.4961 32.0156 39.4961C32.5495 39.4961 33.0052 39.6914 33.3828 40.082C33.7734 40.4596 33.9688 40.9154 33.9688 41.4492V41.4883L33.9297 59.5742C33.9297 60.1081 33.7344 60.5703 33.3438 60.9609C32.9661 61.3385 32.5104 61.5273 31.9766 61.5273C31.4427 61.5273 31.0195 61.3385 30.707 60.9609C30.3945 60.5703 30.2383 60.1081 30.2383 59.5742L30.0234 58.0117C29.3464 59.1706 28.3568 60.0365 27.0547 60.6094C25.7526 61.1693 24.444 61.4492 23.1289 61.4492C21.6576 61.4492 20.2773 61.1628 18.9883 60.5898C17.6992 60.0039 16.5664 59.2031 15.5898 58.1875C14.6133 57.1719 13.8451 56.0065 13.2852 54.6914C12.7383 53.3763 12.4648 51.9896 12.4648 50.5312C12.4648 49.0859 12.7318 47.7057 13.2656 46.3906C13.8125 45.0625 14.5677 43.8841 15.5312 42.8555C16.5078 41.8138 17.6406 41 18.9297 40.4141C20.2318 39.8151 21.6445 39.5156 23.168 39.5156ZM29.9062 50.4922C29.9062 49.2161 29.6068 48.0443 29.0078 46.9766C28.4219 45.9089 27.6211 45.0495 26.6055 44.3984C25.5898 43.7474 24.431 43.4219 23.1289 43.4219C21.8529 43.4219 20.7005 43.7474 19.6719 44.3984C18.6432 45.0495 17.8294 45.9154 17.2305 46.9961C16.6315 48.0638 16.332 49.2227 16.332 50.4727C16.332 51.7357 16.638 52.9076 17.25 53.9883C17.862 55.056 18.6823 55.9154 19.7109 56.5664C20.7526 57.2174 21.8984 57.543 23.1484 57.543C24.3984 57.543 25.5312 57.2174 26.5469 56.5664C27.5755 55.9154 28.3893 55.056 28.9883 53.9883C29.6003 52.9076 29.9062 51.7422 29.9062 50.4922ZM46 39.5938C47.263 39.5938 48.3698 39.8997 49.3203 40.5117C50.2839 41.1237 51.0716 41.8659 51.6836 42.7383C52.4128 41.8919 53.2917 41.1562 54.3203 40.5312C55.349 39.8932 56.4948 39.5742 57.7578 39.5742C59.4245 39.5742 60.8047 40.0234 61.8984 40.9219C63.0052 41.8073 63.8255 42.9727 64.3594 44.418C64.8932 45.8633 65.1602 47.4258 65.1602 49.1055L65.1797 59.5156C65.1797 60.0365 64.9909 60.4857 64.6133 60.8633C64.2357 61.2409 63.7734 61.4297 63.2266 61.4297C62.6797 61.4297 62.2174 61.2409 61.8398 60.8633C61.4622 60.4857 61.2734 60.0365 61.2734 59.5156L61.2539 49.1445C61.2539 48.1549 61.1628 47.2305 60.9805 46.3711C60.7982 45.4987 60.4661 44.7956 59.9844 44.2617C59.5026 43.7279 58.806 43.4609 57.8945 43.4609C56.931 43.4609 56.1042 43.7279 55.4141 44.2617C54.737 44.7956 54.2161 45.4987 53.8516 46.3711C53.5 47.2305 53.3242 48.1615 53.3242 49.1641L53.3438 59.5742C53.3438 60.0951 53.1484 60.5443 52.7578 60.9219C52.3802 61.2865 51.9245 61.4688 51.3906 61.4688C50.8438 61.4688 50.3815 61.2799 50.0039 60.9023C49.6263 60.5247 49.4375 60.0755 49.4375 59.5547V49.1836C49.4375 47.9596 49.2292 46.9245 48.8125 46.0781C48.4089 45.2318 47.8815 44.5938 47.2305 44.1641C46.5924 43.7214 45.9349 43.5 45.2578 43.5C44.2943 43.5 43.4284 43.9492 42.6602 44.8477C41.8919 45.7461 41.5078 47.1458 41.5078 49.0469V59.5742C41.5078 60.0951 41.3125 60.5443 40.9219 60.9219C40.5443 61.2865 40.0885 61.4688 39.5547 61.4688C39.0208 61.4688 38.5586 61.2799 38.168 60.9023C37.7904 60.5247 37.6016 60.0755 37.6016 59.5547V41.4883C37.6016 40.9544 37.6992 40.5052 37.8945 40.1406C38.1029 39.763 38.4805 39.5742 39.0273 39.5742C39.457 39.5742 39.8542 39.7109 40.2188 39.9844C40.5833 40.2578 40.8763 40.7135 41.0977 41.3516L41.4688 42.4258C41.8854 41.5664 42.5234 40.8828 43.3828 40.375C44.2552 39.8542 45.1276 39.5938 46 39.5938ZM85.2188 39.6133C85.6875 39.6133 86.1107 39.8021 86.4883 40.1797C86.8789 40.5573 87.0742 40.974 87.0742 41.4297C87.0742 41.8333 87.0091 42.1654 86.8789 42.4258L78.6367 60.2578C78.2852 61 77.6862 61.3711 76.8398 61.3711C75.9674 61.3711 75.3815 60.974 75.082 60.1797L67.6992 42.3477C67.5951 42.1263 67.543 41.8203 67.543 41.4297C67.543 41.013 67.7188 40.6094 68.0703 40.2188C68.4349 39.8151 68.8385 39.6133 69.2812 39.6133C70.2969 39.6133 70.974 40.0169 71.3125 40.8242L76.9961 54.6523L83.3438 40.7461C83.6953 39.9909 84.3203 39.6133 85.2188 39.6133Z" fill="#E51937"/>
</g>
<defs>
<clipPath id="clip0_106_2">
<rect width="100" height="100" rx="10" fill="white"/>
</clipPath>
</defs>
</svg>
